<svg width="32" height="32" viewBox="0 0 32 32" fill="none" xmlns="http://www.w3.org/2000/svg">
<rect width="32" height="32" rx="16" fill="#CC312D"/>
<path d="M14.176 16.736C13.44 16.7253 12.9013 16.4693 12.56 15.968C12.2293 15.4667 12 14.8107 11.872 14L12.688 13.504C12.7627 14.048 12.88 14.4427 13.04 14.688C13.2 14.9227 13.4987 15.04 13.936 15.04H14.224C14.5333 15.04 14.7787 14.96 14.96 14.8C15.1413 14.64 15.2533 14.432 15.296 14.176L15.856 11.456L17.28 11.712L16.832 13.968C16.8213 14.0107 16.816 14.0693 16.816 14.144C16.816 14.3893 16.9013 14.6027 17.072 14.784C17.2533 14.9547 17.472 15.04 17.728 15.04H19.2V11.248H20.624V14.56C20.624 15.232 20.448 15.7653 20.096 16.16C19.7547 16.544 19.2533 16.736 18.592 16.736H17.728C16.928 16.736 16.3573 16.4 16.016 15.728C15.8133 16.0587 15.5467 16.3093 15.216 16.48C14.896 16.6507 14.5493 16.736 14.176 16.736ZM11.424 16.896C11.424 15.8827 11.376 14.992 11.28 14.224C11.184 13.456 11.0347 12.5013 10.832 11.36L12.32 10.896C12.512 12.112 12.6453 13.1093 12.72 13.888C12.8053 14.656 12.848 15.5893 12.848 16.688V22H11.424V16.896Z" fill="white"/>
</svg>
